<?xml version="1.0" encoding="utf-8"?>
<!-- Generator: Adobe Illustrator 21.0.0, SVG Export Plug-In . SVG Version: 6.00 Build 0)  -->
<svg version="1.1"
	 id="svg12" inkscape:version="0.92.3 (2405546, 2018-03-11)" sodipodi:docname="logo2.svg" xmlns:cc="http://creativecommons.org/ns#" xmlns:dc="http://purl.org/dc/elements/1.1/" xmlns:inkscape="http://www.inkscape.org/namespaces/inkscape" xmlns:rdf="http://www.w3.org/1999/02/22-rdf-syntax-ns#" xmlns:sodipodi="http://sodipodi.sourceforge.net/DTD/sodipodi-0.dtd" xmlns:svg="http://www.w3.org/2000/svg"
	 xmlns="http://www.w3.org/2000/svg" xmlns:xlink="http://www.w3.org/1999/xlink" x="0px" y="0px" viewBox="0 0 82 18"
	 style="enable-background:new 0 0 82 18;" xml:space="preserve">
<style type="text/css">
	.st0{fill:#FFFFFF;}
</style>
<g id="XMLID_81_">
	<path id="XMLID_88_" class="st0" d="M5,3.9C2.3,4,0.1,6.1,0,8.8c-0.1,2.9,2.3,5.3,5.2,5.3H11c0.1,0,0.1-0.1,0.1-0.1v-1.9
		c0-0.1-0.1-0.1-0.1-0.1H5.1C3.5,12.1,2,10.8,2,9c0-1.7,1.4-3.2,3.1-3.2h5.9C11,5.8,11,5.8,11,5.8V3.9c0-0.1-0.1-0.1-0.1-0.1L5,3.9z
		"/>
	<path id="XMLID_87_" class="st0" d="M19.9,9.9c1.7,0,3.1-1.4,3-3.1c0-1.7-1.4-3-3.1-3h-7.4c-0.1,0-0.1,0.1-0.1,0.1V14
		c0,0.1,0.1,0.1,0.1,0.1h1.9c0.1,0,0.1-0.1,0.1-0.1V5.9c0-0.1,0.1-0.1,0.1-0.1h5.5c0.6,0,1,0.5,1.1,1C21,7.4,20.6,8,20,8h-5.2
		c-0.1,0-0.1,0.1-0.1,0.1l6,6h0.1h2.6c0.1,0,0.1-0.1,0.1-0.1l-4-4l0,0H19.9L19.9,9.9z"/>
	<path id="XMLID_86_" class="st0" d="M50.5,3.9h-1.9c-0.1,0-0.1,0.1-0.1,0.1v9c0,0.6,0.5,1.2,1.2,1.2h7.4c0.1,0,0.1-0.1,0.1-0.1
		v-1.9c0-0.1-0.1-0.1-0.1-0.1h-6.4c-0.1,0-0.1-0.1-0.1-0.1V4C50.5,3.9,50.5,3.9,50.5,3.9z"/>
	<path id="XMLID_85_" class="st0" d="M41.8,3.9c-0.1-0.1-0.2-0.1-0.2,0L35.8,14c0,0.1,0,0.1,0.1,0.1H38c0,0,0.1,0,0.1-0.1l3.6-6.3
		c0-0.1,0.1-0.1,0.1,0l2.4,4.2c0,0.1,0,0.1-0.1,0.1H41c0,0-0.1,0-0.1,0.1l-1,1.9c0,0.1,0,0.1,0.1,0.1c1.7,0,6.8,0,7.7,0
		c0.1,0,0.1-0.1,0.1-0.1C47,12.9,41.8,3.9,41.8,3.9z"/>
	<path id="XMLID_84_" class="st0" d="M81.9,3.9h-2.4h-0.1L75.9,8c0,0.1-0.1,0.1-0.1,0l-3.5-4.2h-0.1c-0.5,0-8.1,0-11,0
		c-0.1,0-0.1,0.1-0.1,0.1v1.9c0,0.1,0.1,0.1,0.1,0.1h4c0.1,0,0.1,0.1,0.1,0.1V14c0,0.1,0.1,0.1,0.1,0.1h1.9c0.1,0,0.1-0.1,0.1-0.1
		V5.9c0-0.1,0.1-0.1,0.1-0.1h4h0.1l3.5,4.2c0,0,0,0,0,0.1V14c0,0.1,0.1,0.1,0.1,0.1h1.9c0.1,0,0.1-0.1,0.1-0.1v-3.9V10l5-6
		C82,3.9,82,3.9,81.9,3.9z"/>
	<path id="XMLID_83_" class="st0" d="M58.4,14.1h1.9c0.1,0,0.1-0.1,0.1-0.1V3.9c0-0.1-0.1-0.1-0.1-0.1h-1.9c-0.1,0-0.1,0.1-0.1,0.1
		L58.4,14.1C58.3,14.1,58.3,14.1,58.4,14.1z"/>
	<path id="XMLID_82_" class="st0" d="M34.9,5.8V3.9c0-0.1-0.1-0.1-0.1-0.1h-5.7l0,0C26.3,3.9,24,6.2,24,9c0,2.8,2.3,5.1,5.1,5.1l0,0
		h5.7c0.1,0,0.1-0.1,0.1-0.1v-1.9c0-0.1-0.1-0.1-0.1-0.1h-5.7l0,0c-1.4,0-2.6-0.9-3-2.1h8.7c0.1,0,0.1-0.1,0.1-0.1V8
		C34.9,8,34.8,8,34.8,8h-8.7c0.4-1.2,1.6-2.1,3-2.1l0,0L34.9,5.8L34.9,5.8z"/>
</g>
</svg>
